<svg width="28" height="27" viewBox="0 0 28 27" fill="none" xmlns="http://www.w3.org/2000/svg">
<path fill-rule="evenodd" clip-rule="evenodd" d="M3.71623 11.8125H7.00011C7.1503 9.20362 7.64642 6.80062 8.41255 4.86337C7.179 5.61924 6.12162 6.63051 5.31156 7.82916C4.50149 9.02782 3.95752 10.3861 3.71623 11.8125ZM13.7012 0C10.1207 0 6.68697 1.42232 4.15523 3.95406C1.62349 6.4858 0.201172 9.91958 0.201172 13.5C0.201172 17.0804 1.62349 20.5142 4.15523 23.0459C6.68697 25.5777 10.1207 27 13.7012 27C17.2816 27 20.7154 25.5777 23.2471 23.0459C25.7789 20.5142 27.2012 17.0804 27.2012 13.5C27.2012 9.91958 25.7789 6.4858 23.2471 3.95406C20.7154 1.42232 17.2816 0 13.7012 0ZM13.7012 3.375C13.5729 3.375 13.3097 3.429 12.9165 3.81713C12.5149 4.212 12.0778 4.86844 11.6728 5.81175C11.0164 7.34231 10.5371 9.42638 10.3802 11.8125H17.0222C16.8652 9.42638 16.386 7.34231 15.7295 5.81175C15.3245 4.86675 14.8858 4.212 14.4859 3.81713C14.0927 3.429 13.8294 3.375 13.7012 3.375ZM20.4022 11.8125C20.252 9.20362 19.7559 6.80062 18.9898 4.86337C20.2233 5.61924 21.2807 6.63051 22.0908 7.82916C22.9009 9.02782 23.4448 10.3861 23.6861 11.8125H20.4022ZM17.0222 15.1875H10.3802C10.5371 17.5736 11.0164 19.6577 11.6728 21.1882C12.0778 22.1332 12.5165 22.788 12.9165 23.1829C13.3097 23.571 13.5729 23.625 13.7012 23.625C13.8294 23.625 14.0927 23.571 14.4859 23.1829C14.8875 22.788 15.3262 22.1316 15.7295 21.1882C16.386 19.6577 16.8652 17.5736 17.0222 15.1875ZM18.9898 22.1366C19.7559 20.2011 20.252 17.7964 20.4022 15.1875H23.6861C23.4448 16.6139 22.9009 17.9722 22.0908 19.1708C21.2807 20.3695 20.2233 21.3808 18.9898 22.1366ZM8.41255 22.1366C7.64642 20.1994 7.1503 17.7964 7.0018 15.1875H3.71623C3.95752 16.6139 4.50149 17.9722 5.31156 19.1708C6.12162 20.3695 7.179 21.3808 8.41255 22.1366Z" fill="#22A801"/>
</svg>
