<svg width="18" height="18" viewBox="0 0 18 18" fill="none" xmlns="http://www.w3.org/2000/svg">
<path fill-rule="evenodd" clip-rule="evenodd" d="M2.28936 7.50891H4.35698C4.45155 5.86629 4.76392 4.35329 5.2463 3.13354C4.46962 3.60945 3.80386 4.24618 3.29382 5.00088C2.78378 5.75559 2.44128 6.61078 2.28936 7.50891ZM8.57617 0.0714111C6.32183 0.0714111 4.15982 0.966944 2.56576 2.561C0.971705 4.15506 0.0761719 6.31707 0.0761719 8.57141C0.0761719 10.8258 0.971705 12.9878 2.56576 14.5818C4.15982 16.1759 6.32183 17.0714 8.57617 17.0714C10.8305 17.0714 12.9925 16.1759 14.5866 14.5818C16.1806 12.9878 17.0762 10.8258 17.0762 8.57141C17.0762 6.31707 16.1806 4.15506 14.5866 2.561C12.9925 0.966944 10.8305 0.0714111 8.57617 0.0714111ZM8.57617 2.19641C8.49542 2.19641 8.32967 2.23041 8.08211 2.47479C7.82923 2.72341 7.55405 3.13672 7.29905 3.73066C6.88573 4.69435 6.58398 6.00654 6.48517 7.50891H10.6672C10.5684 6.00654 10.2666 4.69435 9.8533 3.73066C9.5983 3.13566 9.32205 2.72341 9.07023 2.47479C8.82267 2.23041 8.65692 2.19641 8.57617 2.19641ZM12.7954 7.50891C12.7008 5.86629 12.3884 4.35329 11.906 3.13354C12.6827 3.60945 13.3485 4.24618 13.8585 5.00088C14.3686 5.75559 14.7111 6.61078 14.863 7.50891H12.7954ZM10.6672 9.63391H6.48517C6.58398 11.1363 6.88573 12.4485 7.29905 13.4122C7.55405 14.0072 7.8303 14.4194 8.08211 14.668C8.32967 14.9124 8.49542 14.9464 8.57617 14.9464C8.65692 14.9464 8.82267 14.9124 9.07023 14.668C9.32311 14.4194 9.59936 14.0061 9.8533 13.4122C10.2666 12.4485 10.5684 11.1363 10.6672 9.63391ZM11.906 14.0093C12.3884 12.7906 12.7008 11.2765 12.7954 9.63391H14.863C14.7111 10.532 14.3686 11.3872 13.8585 12.1419C13.3485 12.8966 12.6827 13.5334 11.906 14.0093ZM5.2463 14.0093C4.76392 12.7895 4.45155 11.2765 4.35805 9.63391H2.28936C2.44128 10.532 2.78378 11.3872 3.29382 12.1419C3.80386 12.8966 4.46962 13.5334 5.2463 14.0093Z" fill="#22A801"/>
</svg>
