<svg width="18" height="20" viewBox="0 0 18 20" fill="none" xmlns="http://www.w3.org/2000/svg">
<path d="M12.0464 19.9048H5.95113C4.94078 19.9048 3.97181 19.5034 3.25739 18.789C2.54296 18.0746 2.1416 17.1056 2.1416 16.0952V6.95238C2.1416 6.75031 2.22187 6.55652 2.36476 6.41364C2.50764 6.27075 2.70144 6.19048 2.90351 6.19048C3.10558 6.19048 3.29937 6.27075 3.44225 6.41364C3.58514 6.55652 3.66541 6.75031 3.66541 6.95238V16.0952C3.66541 16.7014 3.90623 17.2828 4.33488 17.7115C4.76354 18.1401 5.34492 18.381 5.95113 18.381H12.0464C12.6526 18.381 13.234 18.1401 13.6626 17.7115C14.0913 17.2828 14.3321 16.7014 14.3321 16.0952V6.95238C14.3321 6.75031 14.4123 6.55652 14.5552 6.41364C14.6981 6.27075 14.8919 6.19048 15.094 6.19048C15.2961 6.19048 15.4898 6.27075 15.6327 6.41364C15.7756 6.55652 15.8559 6.75031 15.8559 6.95238V16.0952C15.8559 17.1056 15.4545 18.0746 14.7401 18.789C14.0257 19.5034 13.0567 19.9048 12.0464 19.9048Z" fill="#FF0000"/>
<path d="M16.6182 4.66666H1.38007C1.178 4.66666 0.984206 4.58639 0.841321 4.4435C0.698436 4.30062 0.618164 4.10682 0.618164 3.90475C0.618164 3.70268 0.698436 3.50889 0.841321 3.36601C0.984206 3.22312 1.178 3.14285 1.38007 3.14285H16.6182C16.8202 3.14285 17.014 3.22312 17.1569 3.36601C17.2998 3.50889 17.3801 3.70268 17.3801 3.90475C17.3801 4.10682 17.2998 4.30062 17.1569 4.4435C17.014 4.58639 16.8202 4.66666 16.6182 4.66666Z" fill="#FF0000"/>
<path d="M12.0466 4.66667H5.95136C5.74929 4.66667 5.55549 4.58639 5.41261 4.44351C5.26973 4.30062 5.18945 4.10683 5.18945 3.90476V2.38095C5.18945 1.77474 5.43027 1.19336 5.85892 0.764708C6.28758 0.336053 6.86896 0.0952377 7.47517 0.0952377H10.5228C11.129 0.0952377 11.7104 0.336053 12.139 0.764708C12.5677 1.19336 12.8085 1.77474 12.8085 2.38095V3.90476C12.8085 4.10683 12.7282 4.30062 12.5853 4.44351C12.4425 4.58639 12.2487 4.66667 12.0466 4.66667ZM6.71326 3.14286H11.2847V2.38095C11.2847 2.17888 11.2044 1.98509 11.0615 1.8422C10.9187 1.69932 10.7249 1.61905 10.5228 1.61905H7.47517C7.2731 1.61905 7.0793 1.69932 6.93642 1.8422C6.79353 1.98509 6.71326 2.17888 6.71326 2.38095V3.14286Z" fill="#FF0000"/>
<path d="M7.4748 15.3333C7.27273 15.3333 7.07893 15.2531 6.93605 15.1102C6.79316 14.9673 6.71289 14.7735 6.71289 14.5714V9.2381C6.71289 9.03603 6.79316 8.84224 6.93605 8.69935C7.07893 8.55647 7.27273 8.4762 7.4748 8.4762C7.67687 8.4762 7.87066 8.55647 8.01354 8.69935C8.15643 8.84224 8.2367 9.03603 8.2367 9.2381V14.5714C8.2367 14.7735 8.15643 14.9673 8.01354 15.1102C7.87066 15.2531 7.67687 15.3333 7.4748 15.3333Z" fill="#FF0000"/>
<path d="M10.5236 15.3333C10.3216 15.3333 10.1278 15.2531 9.98487 15.1102C9.84199 14.9673 9.76172 14.7735 9.76172 14.5714V9.2381C9.76172 9.03603 9.84199 8.84224 9.98487 8.69935C10.1278 8.55647 10.3216 8.4762 10.5236 8.4762C10.7257 8.4762 10.9195 8.55647 11.0624 8.69935C11.2053 8.84224 11.2855 9.03603 11.2855 9.2381V14.5714C11.2855 14.7735 11.2053 14.9673 11.0624 15.1102C10.9195 15.2531 10.7257 15.3333 10.5236 15.3333Z" fill="#FF0000"/>
</svg>
