<svg width="18" height="18" viewBox="0 0 18 18" fill="none" xmlns="http://www.w3.org/2000/svg">
<path fill-rule="evenodd" clip-rule="evenodd" d="M17.7012 8.57141C17.7012 10.8258 16.8056 12.9878 15.2116 14.5818C13.6175 16.1759 11.4555 17.0714 9.20117 17.0714C6.94683 17.0714 4.78482 16.1759 3.19076 14.5818C1.59671 12.9878 0.701172 10.8258 0.701172 8.57141C0.701172 6.31707 1.59671 4.15506 3.19076 2.561C4.78482 0.966944 6.94683 0.0714111 9.20117 0.0714111C11.4555 0.0714111 13.6175 0.966944 15.2116 2.561C16.8056 4.15506 17.7012 6.31707 17.7012 8.57141ZM9.20117 5.38391C9.01449 5.38373 8.83105 5.43274 8.66934 5.526C8.50762 5.61926 8.37333 5.75349 8.27998 5.91516C8.21259 6.0404 8.12073 6.15084 8.00986 6.23993C7.89898 6.32901 7.77135 6.39493 7.63453 6.43377C7.49771 6.47261 7.35449 6.48359 7.21335 6.46605C7.07221 6.44851 6.93602 6.40282 6.81287 6.33167C6.68971 6.26053 6.5821 6.16538 6.4964 6.05187C6.4107 5.93836 6.34866 5.8088 6.31396 5.67087C6.27927 5.53294 6.27261 5.38945 6.2944 5.2489C6.31619 5.10836 6.36597 4.97361 6.4408 4.85266C6.79165 4.24503 7.3332 3.77015 7.98145 3.50165C8.6297 3.23316 9.34842 3.18606 10.0262 3.36767C10.7039 3.54927 11.3028 3.94942 11.7299 4.50607C12.1571 5.06272 12.3886 5.74476 12.3887 6.44641C12.3889 7.10582 12.1846 7.74906 11.804 8.28757C11.4235 8.82607 10.8853 9.23334 10.2637 9.45329V9.63391C10.2637 9.9157 10.1517 10.186 9.95247 10.3852C9.75321 10.5845 9.48296 10.6964 9.20117 10.6964C8.91938 10.6964 8.64913 10.5845 8.44987 10.3852C8.25061 10.186 8.13867 9.9157 8.13867 9.63391V8.57141C8.13867 8.28962 8.25061 8.01937 8.44987 7.82011C8.64913 7.62085 8.91938 7.50891 9.20117 7.50891C9.48296 7.50891 9.75321 7.39697 9.95247 7.19771C10.1517 6.99845 10.2637 6.7282 10.2637 6.44641C10.2637 6.16462 10.1517 5.89437 9.95247 5.69511C9.75321 5.49585 9.48296 5.38391 9.20117 5.38391ZM9.20117 13.8839C9.48296 13.8839 9.75321 13.772 9.95247 13.5727C10.1517 13.3735 10.2637 13.1032 10.2637 12.8214C10.2637 12.5396 10.1517 12.2694 9.95247 12.0701C9.75321 11.8709 9.48296 11.7589 9.20117 11.7589C8.91938 11.7589 8.64913 11.8709 8.44987 12.0701C8.25061 12.2694 8.13867 12.5396 8.13867 12.8214C8.13867 13.1032 8.25061 13.3735 8.44987 13.5727C8.64913 13.772 8.91938 13.8839 9.20117 13.8839Z" fill="#22A801"/>
</svg>
