<svg width="20" height="20" viewBox="0 0 20 20" fill="none" xmlns="http://www.w3.org/2000/svg">
<path d="M10.4337 0.851344C10.2086 0.626378 9.90345 0.5 9.58525 0.5C9.26706 0.5 8.96189 0.626378 8.73685 0.851344L0.336854 9.25134C0.118264 9.47767 -0.00268874 9.78079 4.53632e-05 10.0954C0.00277947 10.4101 0.128982 10.711 0.351472 10.9335C0.573962 11.156 0.874936 11.2822 1.18957 11.285C1.50421 11.2877 1.80733 11.1667 2.03365 10.9481L2.38525 10.5965V18.4997C2.38525 18.818 2.51168 19.1232 2.73673 19.3483C2.96177 19.5733 3.26699 19.6997 3.58525 19.6997H5.98525C6.30351 19.6997 6.60874 19.5733 6.83378 19.3483C7.05883 19.1232 7.18525 18.818 7.18525 18.4997V16.0997C7.18525 15.7815 7.31168 15.4763 7.53673 15.2512C7.76177 15.0262 8.06699 14.8997 8.38525 14.8997H10.7853C11.1035 14.8997 11.4087 15.0262 11.6338 15.2512C11.8588 15.4763 11.9853 15.7815 11.9853 16.0997V18.4997C11.9853 18.818 12.1117 19.1232 12.3367 19.3483C12.5618 19.5733 12.867 19.6997 13.1853 19.6997H15.5853C15.9035 19.6997 16.2087 19.5733 16.4338 19.3483C16.6588 19.1232 16.7853 18.818 16.7853 18.4997V10.5965L17.1369 10.9481C17.3632 11.1667 17.6663 11.2877 17.9809 11.285C18.2956 11.2822 18.5965 11.156 18.819 10.9335C19.0415 10.711 19.1677 10.4101 19.1705 10.0954C19.1732 9.78079 19.0522 9.47767 18.8337 9.25134L10.4337 0.851344Z" fill="#01468B"/>
</svg>
