<svg width="24" height="24" viewBox="0 0 24 24" fill="none" xmlns="http://www.w3.org/2000/svg">
<path d="M8.40039 3.59998C8.08213 3.59998 7.77691 3.7264 7.55186 3.95145C7.32682 4.17649 7.20039 4.48172 7.20039 4.79998C7.20039 5.11824 7.32682 5.42346 7.55186 5.6485C7.77691 5.87355 8.08213 5.99998 8.40039 5.99998H15.6004C15.9187 5.99998 16.2239 5.87355 16.4489 5.6485C16.674 5.42346 16.8004 5.11824 16.8004 4.79998C16.8004 4.48172 16.674 4.17649 16.4489 3.95145C16.2239 3.7264 15.9187 3.59998 15.6004 3.59998H8.40039ZM4.80039 8.39998C4.80039 8.08172 4.92682 7.77649 5.15186 7.55145C5.37691 7.3264 5.68213 7.19998 6.00039 7.19998H18.0004C18.3187 7.19998 18.6239 7.3264 18.8489 7.55145C19.074 7.77649 19.2004 8.08172 19.2004 8.39998C19.2004 8.71824 19.074 9.02346 18.8489 9.2485C18.6239 9.47355 18.3187 9.59998 18.0004 9.59998H6.00039C5.68213 9.59998 5.37691 9.47355 5.15186 9.2485C4.92682 9.02346 4.80039 8.71824 4.80039 8.39998ZM2.40039 13.2C2.40039 12.5635 2.65325 11.953 3.10333 11.5029C3.55342 11.0528 4.16387 10.8 4.80039 10.8H19.2004C19.8369 10.8 20.4474 11.0528 20.8974 11.5029C21.3475 11.953 21.6004 12.5635 21.6004 13.2V18C21.6004 18.6365 21.3475 19.2469 20.8974 19.697C20.4474 20.1471 19.8369 20.4 19.2004 20.4H4.80039C4.16387 20.4 3.55342 20.1471 3.10333 19.697C2.65325 19.2469 2.40039 18.6365 2.40039 18V13.2Z" fill="#01468B"/>
</svg>
