<svg width="22" height="16" viewBox="0 0 22 16" fill="none" xmlns="http://www.w3.org/2000/svg">
<path d="M11 10C11.5304 10 12.0391 9.78929 12.4142 9.41421C12.7893 9.03914 13 8.53043 13 8C13 7.46957 12.7893 6.96086 12.4142 6.58579C12.0391 6.21071 11.5304 6 11 6C10.4696 6 9.96086 6.21071 9.58579 6.58579C9.21071 6.96086 9 7.46957 9 8C9 8.53043 9.21071 9.03914 9.58579 9.41421C9.96086 9.78929 10.4696 10 11 10Z" fill="#01468B"/>
<path fill-rule="evenodd" clip-rule="evenodd" d="M0 8C1.46866 3.36343 5.83777 0 11 0C16.1622 0 20.5313 3.36343 22 8C20.5313 12.6366 16.1622 16 11 16C5.83777 16 1.46866 12.6366 0 8ZM15.6112 8C15.6112 9.21242 15.1254 10.3752 14.2606 11.2325C13.3958 12.0898 12.223 12.5714 11 12.5714C9.77704 12.5714 8.60416 12.0898 7.73939 11.2325C6.87463 10.3752 6.38881 9.21242 6.38881 8C6.38881 6.78758 6.87463 5.62482 7.73939 4.76751C8.60416 3.9102 9.77704 3.42857 11 3.42857C12.223 3.42857 13.3958 3.9102 14.2606 4.76751C15.1254 5.62482 15.6112 6.78758 15.6112 8Z" fill="#01468B"/>
</svg>
