<svg width="53" height="69" viewBox="0 0 53 69" fill="none" xmlns="http://www.w3.org/2000/svg">
<path d="M30.5434 17.0625V0H6.90872C3.34874 0 0.462891 2.86463 0.462891 6.39844V61.8516C0.462891 65.384 3.34874 68.25 6.90872 68.25H45.5837C49.1437 68.25 52.0296 65.3854 52.0296 61.8516V21.3281H34.9615C32.4638 21.3281 30.5434 19.4219 30.5434 17.0625ZM38.265 31.9922H41.4033C42.4396 31.9922 43.2068 32.9493 42.9732 33.9517L37.2713 58.4791C37.1101 59.1989 36.4521 59.7188 35.7135 59.7188H31.7843C31.0556 59.7188 30.4172 59.2334 30.2279 58.5346L26.2462 43.8693L22.27 58.4124C21.9624 59.2389 21.4387 59.7188 20.7136 59.7188H16.7789C16.0285 59.7188 15.3769 59.2043 15.2091 58.4784L9.5072 33.951C9.28025 32.952 10.047 31.9922 11.0824 31.9922H14.2207C14.9711 31.9922 15.6227 32.5066 15.7905 33.232L18.9678 46.9219L22.701 33.1786C22.889 32.4721 23.5336 31.9922 24.2588 31.9922H28.235C28.9637 31.9922 29.6021 32.4775 29.7914 33.1763L33.5246 46.9219L36.7073 33.2319C36.8684 32.5121 37.4056 31.9922 38.265 31.9922ZM34.8407 0V17.0625H52.0296L34.8407 0Z" fill="#1976D2"/>
</svg>
