<svg width="94" height="94" viewBox="0 0 94 94" fill="none" xmlns="http://www.w3.org/2000/svg">
<path fill-rule="evenodd" clip-rule="evenodd" d="M18.7998 18.8C18.7998 16.307 19.7902 13.916 21.553 12.1532C23.3158 10.3904 25.7068 9.4 28.1998 9.4H49.754C52.2468 9.40053 54.6374 10.3912 56.3998 12.1542L72.4456 28.2C74.2086 29.9624 75.1993 32.353 75.1998 34.8458V75.2C75.1998 77.693 74.2095 80.084 72.4466 81.8468C70.6838 83.6096 68.2928 84.6 65.7998 84.6H28.1998C25.7068 84.6 23.3158 83.6096 21.553 81.8468C19.7902 80.084 18.7998 77.693 18.7998 75.2V18.8Z" fill="#22A801"/>
<path d="M54.2598 55.9958L47.2598 62.6625L40.2598 55.9958" stroke="white" stroke-width="2" stroke-linecap="round" stroke-linejoin="round"/>
<path d="M47.2598 46.9958V61.9958" stroke="white" stroke-width="2" stroke-linecap="round" stroke-linejoin="round"/>
<path d="M61.9418 57.6459C63.6487 56.7597 64.997 55.3574 65.7741 53.6603C66.5512 51.9632 66.7127 50.068 66.2332 48.2737C65.7537 46.4795 64.6604 44.8884 63.126 43.7516C61.5916 42.6149 59.7033 41.9971 57.7593 41.9959H55.5543C55.0246 40.0446 54.0374 38.2331 52.6667 36.6976C51.2961 35.162 49.5778 33.9423 47.641 33.1302C45.7042 32.3182 43.5993 31.9348 41.4845 32.009C39.3698 32.0832 37.3002 32.6131 35.4314 33.5587C33.5626 34.5043 31.9432 35.8411 30.6949 37.4685C29.4467 39.096 28.602 40.9718 28.2245 42.9549C27.8471 44.938 27.9465 46.9768 28.5155 48.918C29.0844 50.8592 30.108 52.6523 31.5093 54.1626" stroke="white" stroke-width="2" stroke-linecap="round" stroke-linejoin="round"/>
</svg>
