<svg width="28" height="27" viewBox="0 0 28 27" fill="none" xmlns="http://www.w3.org/2000/svg">
<path fill-rule="evenodd" clip-rule="evenodd" d="M27.2012 13.5C27.2012 17.0804 25.7789 20.5142 23.2471 23.0459C20.7154 25.5777 17.2816 27 13.7012 27C10.1207 27 6.68697 25.5777 4.15523 23.0459C1.62349 20.5142 0.201172 17.0804 0.201172 13.5C0.201172 9.91958 1.62349 6.4858 4.15523 3.95406C6.68697 1.42232 10.1207 0 13.7012 0C17.2816 0 20.7154 1.42232 23.2471 3.95406C25.7789 6.4858 27.2012 9.91958 27.2012 13.5ZM13.7012 8.4375C13.4047 8.43721 13.1133 8.51505 12.8565 8.66317C12.5996 8.81129 12.3864 9.02448 12.2381 9.28125C12.1311 9.48017 11.9852 9.65557 11.8091 9.79705C11.633 9.93854 11.4303 10.0432 11.213 10.1049C10.9957 10.1666 10.7682 10.184 10.544 10.1562C10.3199 10.1283 10.1036 10.0558 9.90798 9.94277C9.71239 9.82977 9.54147 9.67866 9.40536 9.49838C9.26925 9.3181 9.17072 9.11233 9.11561 8.89326C9.0605 8.6742 9.04993 8.4463 9.08453 8.22308C9.11913 7.99985 9.1982 7.78585 9.31705 7.59375C9.87429 6.62869 10.7344 5.87446 11.764 5.44803C12.7935 5.0216 13.935 4.9468 15.0115 5.23523C16.0879 5.52366 17.039 6.1592 17.7175 7.04329C18.3959 7.92738 18.7636 9.01061 18.7637 10.125C18.764 11.1723 18.4396 12.1939 17.8351 13.0492C17.2307 13.9045 16.376 14.5513 15.3887 14.9006V15.1875C15.3887 15.6351 15.2109 16.0643 14.8944 16.3807C14.5779 16.6972 14.1487 16.875 13.7012 16.875C13.2536 16.875 12.8244 16.6972 12.5079 16.3807C12.1915 16.0643 12.0137 15.6351 12.0137 15.1875V13.5C12.0137 13.0524 12.1915 12.6232 12.5079 12.3068C12.8244 11.9903 13.2536 11.8125 13.7012 11.8125C14.1487 11.8125 14.5779 11.6347 14.8944 11.3182C15.2109 11.0018 15.3887 10.5726 15.3887 10.125C15.3887 9.67745 15.2109 9.24823 14.8944 8.93176C14.5779 8.61529 14.1487 8.4375 13.7012 8.4375ZM13.7012 21.9375C14.1487 21.9375 14.5779 21.7597 14.8944 21.4432C15.2109 21.1268 15.3887 20.6976 15.3887 20.25C15.3887 19.8024 15.2109 19.3732 14.8944 19.0568C14.5779 18.7403 14.1487 18.5625 13.7012 18.5625C13.2536 18.5625 12.8244 18.7403 12.5079 19.0568C12.1915 19.3732 12.0137 19.8024 12.0137 20.25C12.0137 20.6976 12.1915 21.1268 12.5079 21.4432C12.8244 21.7597 13.2536 21.9375 13.7012 21.9375Z" fill="#22A801"/>
</svg>
