<svg width="24" height="24" viewBox="0 0 24 24" fill="none" xmlns="http://www.w3.org/2000/svg">
<g id="support">
<path id="Vector" fill-rule="evenodd" clip-rule="evenodd" d="M21.6004 12C21.6004 14.5461 20.589 16.9879 18.7886 18.7882C16.9883 20.5886 14.5465 21.6 12.0004 21.6C9.45431 21.6 7.01252 20.5886 5.21217 18.7882C3.41182 16.9879 2.40039 14.5461 2.40039 12C2.40039 9.45392 3.41182 7.01212 5.21217 5.21177C7.01252 3.41142 9.45431 2.39999 12.0004 2.39999C14.5465 2.39999 16.9883 3.41142 18.7886 5.21177C20.589 7.01212 21.6004 9.45392 21.6004 12ZM19.2004 12C19.2004 13.1916 18.9112 14.3148 18.3988 15.3048L16.57 13.4748C16.8438 12.6272 16.8762 11.7201 16.6636 10.8552L18.538 8.98079C18.9628 9.89879 19.2004 10.92 19.2004 12ZM13.0024 16.6956L14.8984 18.5916C13.9852 18.9937 12.9982 19.2009 12.0004 19.2C10.9578 19.2013 9.92747 18.9752 8.98119 18.5376L10.8556 16.6632C11.5596 16.8357 12.2935 16.8468 13.0024 16.6956ZM7.38999 13.3404C7.15384 12.5273 7.13687 11.6662 7.34079 10.8444L7.24479 10.9404L5.40879 9.10079C5.00656 10.0144 4.79934 11.0018 4.80039 12C4.80039 13.1448 5.06799 14.2272 5.54319 15.1884L7.39119 13.3404H7.38999ZM8.69559 5.60039C9.71706 5.07242 10.8505 4.79789 12.0004 4.79999C13.1452 4.79999 14.2276 5.06759 15.1888 5.54279L13.3408 7.39079C12.4195 7.12244 11.439 7.13624 10.5256 7.43039L8.69559 5.60159V5.60039ZM14.4004 12C14.4004 12.6365 14.1475 13.247 13.6974 13.6971C13.2474 14.1471 12.6369 14.4 12.0004 14.4C11.3639 14.4 10.7534 14.1471 10.3033 13.6971C9.85325 13.247 9.60039 12.6365 9.60039 12C9.60039 11.3635 9.85325 10.753 10.3033 10.3029C10.7534 9.85285 11.3639 9.59999 12.0004 9.59999C12.6369 9.59999 13.2474 9.85285 13.6974 10.3029C14.1475 10.753 14.4004 11.3635 14.4004 12Z" fill="#01468B"/>
</g>
</svg>
