<svg width="17" height="18" viewBox="0 0 17 18" fill="none" xmlns="http://www.w3.org/2000/svg">
<path fill-rule="evenodd" clip-rule="evenodd" d="M4.1875 4.33653V3.2524C4.1875 2.38981 4.50357 1.56255 5.06618 0.952605C5.62879 0.342662 6.39185 0 7.1875 0H9.1875C9.98315 0 10.7462 0.342662 11.3088 0.952605C11.8714 1.56255 12.1875 2.38981 12.1875 3.2524V4.33653H14.1875C14.7179 4.33653 15.2266 4.56497 15.6017 4.9716C15.9768 5.37823 16.1875 5.92973 16.1875 6.50479V10.3751C13.6271 11.4037 10.918 11.9287 8.1875 11.9255C5.457 11.9287 2.74787 11.4037 0.1875 10.3751V6.50479C0.1875 5.92973 0.398214 5.37823 0.773286 4.9716C1.14836 4.56497 1.65707 4.33653 2.1875 4.33653H4.1875ZM6.1875 3.2524C6.1875 2.96487 6.29286 2.68911 6.48039 2.4858C6.66793 2.28248 6.92228 2.16826 7.1875 2.16826H9.1875C9.45272 2.16826 9.70707 2.28248 9.89461 2.4858C10.0821 2.68911 10.1875 2.96487 10.1875 3.2524V4.33653H6.1875V3.2524ZM7.1875 8.67306C7.1875 8.38553 7.29286 8.10977 7.48039 7.90646C7.66793 7.70314 7.92228 7.58892 8.1875 7.58892H8.1975C8.46272 7.58892 8.71707 7.70314 8.90461 7.90646C9.09214 8.10977 9.1975 8.38553 9.1975 8.67306C9.1975 8.96059 9.09214 9.23634 8.90461 9.43965C8.71707 9.64297 8.46272 9.75719 8.1975 9.75719H8.1875C7.92228 9.75719 7.66793 9.64297 7.48039 9.43965C7.29286 9.23634 7.1875 8.96059 7.1875 8.67306Z" fill="#22A801"/>
<path d="M0.1875 12.6707V15.0665C0.1875 15.6172 0.398214 16.1453 0.773286 16.5346C1.14836 16.924 1.65707 17.1427 2.1875 17.1427H14.1875C14.7179 17.1427 15.2266 16.924 15.6017 16.5346C15.9768 16.1453 16.1875 15.6172 16.1875 15.0665V12.6707C13.6099 13.5725 10.9076 14.0311 8.1875 14.0285C5.3915 14.0285 2.7005 13.5509 0.1875 12.6707Z" fill="#22A801"/>
</svg>
