<svg width="26" height="27" viewBox="0 0 26 27" fill="none" xmlns="http://www.w3.org/2000/svg">
<path fill-rule="evenodd" clip-rule="evenodd" d="M6.30017 6.83021V5.12266C6.30017 3.76405 6.79799 2.46108 7.68413 1.50039C8.57026 0.539707 9.77211 0 11.0253 0H14.1754C15.4286 0 16.6304 0.539707 17.5165 1.50039C18.4027 2.46108 18.9005 3.76405 18.9005 5.12266V6.83021H22.0506C22.886 6.83021 23.6873 7.19002 24.278 7.83047C24.8688 8.47093 25.2007 9.33958 25.2007 10.2453V16.3413C21.168 17.9613 16.901 18.7882 12.6003 18.7831C8.29968 18.7883 4.03268 17.9614 0 16.3413V10.2453C0 9.33958 0.331883 8.47093 0.922638 7.83047C1.51339 7.19002 2.31463 6.83021 3.15008 6.83021H6.30017ZM9.45025 5.12266C9.45025 4.66979 9.61619 4.23547 9.91157 3.91524C10.2069 3.59501 10.6076 3.41511 11.0253 3.41511H14.1754C14.5931 3.41511 14.9937 3.59501 15.2891 3.91524C15.5845 4.23547 15.7504 4.66979 15.7504 5.12266V6.83021H9.45025V5.12266ZM11.0253 13.6604C11.0253 13.2076 11.1912 12.7732 11.4866 12.453C11.782 12.1328 12.1826 11.9529 12.6003 11.9529H12.6161C13.0338 11.9529 13.4344 12.1328 13.7298 12.453C14.0252 12.7732 14.1911 13.2076 14.1911 13.6604C14.1911 14.1133 14.0252 14.5476 13.7298 14.8678C13.4344 15.1881 13.0338 15.368 12.6161 15.368H12.6003C12.1826 15.368 11.782 15.1881 11.4866 14.8678C11.1912 14.5476 11.0253 14.1133 11.0253 13.6604Z" fill="#22A801"/>
<path d="M0 19.9558V23.7294C0 24.5967 0.331883 25.4285 0.922638 26.0417C1.51339 26.655 2.31463 26.9995 3.15008 26.9995H22.0506C22.886 26.9995 23.6873 26.655 24.278 26.0417C24.8688 25.4285 25.2007 24.5967 25.2007 23.7294V19.9558C21.1408 21.3763 16.8846 22.0986 12.6003 22.0944C8.19652 22.0944 3.95808 21.3423 0 19.9558Z" fill="#22A801"/>
</svg>
