<svg width="14" height="17" viewBox="0 0 14 17" fill="none" xmlns="http://www.w3.org/2000/svg">
<path d="M6.99979 0.5C5.40849 0.5 3.88236 1.13214 2.75715 2.25736C1.63193 3.38258 0.999787 4.9087 0.999787 6.5V10.086L0.292787 10.793C0.152977 10.9329 0.057771 11.111 0.0192035 11.305C-0.0193641 11.4989 0.000438951 11.7 0.076109 11.8827C0.151779 12.0654 0.279918 12.2215 0.444328 12.3314C0.608738 12.4413 0.802037 12.5 0.999787 12.5H12.9998C13.1975 12.5 13.3908 12.4413 13.5552 12.3314C13.7197 12.2215 13.8478 12.0654 13.9235 11.8827C13.9991 11.7 14.0189 11.4989 13.9804 11.305C13.9418 11.111 13.8466 10.9329 13.7068 10.793L12.9998 10.086V6.5C12.9998 4.9087 12.3676 3.38258 11.2424 2.25736C10.1172 1.13214 8.59109 0.5 6.99979 0.5ZM6.99979 16.5C6.20414 16.5 5.44108 16.1839 4.87847 15.6213C4.31586 15.0587 3.99979 14.2956 3.99979 13.5H9.99979C9.99979 14.2956 9.68372 15.0587 9.12111 15.6213C8.5585 16.1839 7.79544 16.5 6.99979 16.5Z" fill="#01468B"/>
</svg>
