<svg width="42" height="40" viewBox="0 0 42 40" fill="none" xmlns="http://www.w3.org/2000/svg">
<path d="M28 26.6667L21 20L14 26.6667" stroke="#22A801" stroke-width="2" stroke-linecap="round" stroke-linejoin="round"/>
<path d="M21 20V35" stroke="#22A801" stroke-width="2" stroke-linecap="round" stroke-linejoin="round"/>
<path d="M35.6821 30.6501C37.3889 29.7638 38.7373 28.3615 39.5143 26.6644C40.2914 24.9673 40.4529 23.0721 39.9734 21.2779C39.4939 19.4836 38.4007 17.8926 36.8662 16.7558C35.3318 15.619 33.4436 15.0013 31.4996 15.0001H29.2946C28.7649 13.0488 27.7776 11.2373 26.407 9.70171C25.0363 8.16614 23.318 6.94647 21.3812 6.1344C19.4444 5.32233 17.3395 4.93899 15.2248 5.01319C13.11 5.0874 11.0404 5.61722 9.17162 6.56283C7.30282 7.50844 5.68341 8.84523 4.43515 10.4727C3.1869 12.1002 2.34227 13.9759 1.96478 15.959C1.58729 17.9421 1.68675 19.9809 2.25569 21.9222C2.82463 23.8634 3.84824 25.6565 5.24957 27.1667" stroke="#22A801" stroke-width="2" stroke-linecap="round" stroke-linejoin="round"/>
<path d="M28 26.6667L21 20L14 26.6667" stroke="#22A801" stroke-width="2" stroke-linecap="round" stroke-linejoin="round"/>
</svg>
