<svg width="52" height="67" viewBox="0 0 52 67" fill="none" xmlns="http://www.w3.org/2000/svg">
<path d="M6.21875 3.6875C3.07754 3.6875 0.53125 6.24688 0.53125 9.375V32.125V43.5V60.5625C0.53125 63.6906 3.07754 66.25 6.21875 66.25H46.0312C49.1736 66.25 51.7188 63.6906 51.7188 60.5625V43.5V32.125V20.75L34.6562 3.6875H6.21875Z" fill="#C0392B"/>
<path d="M6.21875 0.84375C3.07754 0.84375 0.53125 3.40313 0.53125 6.53125V29.2812V40.6562V57.7188C0.53125 60.8469 3.07754 63.4062 6.21875 63.4062H46.0312C49.1736 63.4062 51.7188 60.8469 51.7188 57.7188V40.6562V29.2812V17.9062L34.6562 0.84375H6.21875Z" fill="#E74C3C"/>
<path d="M51.7188 17.9062L34.6562 0.84375V12.2188C34.6562 15.3469 37.2014 17.9062 40.3438 17.9062H51.7188Z" fill="#C0392B"/>
<path d="M46.3497 29.2812H45.525C45.2691 29.5656 43.8159 31.5563 43.1875 32.125C43.0168 32.4094 42.7609 32.6936 42.6159 32.6936C40.503 35.253 36.0098 39.5188 33.314 41.7938C32.9613 42.0782 32.6201 42.3624 32.5575 42.3624C32.3698 42.6468 30.5726 43.7842 29.765 44.3529C27.1914 46.0592 24.1713 47.4812 21.8252 48.0499C17.1953 49.1874 13.5829 48.9031 8.89298 46.6281C7.47566 46.0593 5.45631 44.9217 4.34924 44.0686C3.26292 43.2155 3.37753 43.2157 3.37923 44.6376V46.0594L4.11235 46.3438C5.05278 46.9125 7.08265 48.0498 8.40613 48.6185C9.41452 49.1873 9.72876 49.4718 9.16456 49.4718C8.64472 49.1874 5.69461 49.1874 4.5611 49.4718H3.42359C3.39743 49.4718 3.3761 50.0406 3.3761 50.6094V51.7469H3.75518C5.38635 51.1782 8.88729 51.1779 10.517 51.4623C12.436 51.7467 13.7862 52.031 15.408 52.8842C18.5023 54.306 21.0688 57.1498 22.1864 59.9935L22.4139 60.5625H23.6651H24.9164L24.8481 60.2782C24.4472 58.5719 23.321 56.5812 21.9276 55.1593C21.0119 54.0218 19.3947 52.8843 18.7574 52.3156H18.5424C18.4389 52.0312 17.358 51.4623 16.8961 51.4623C16.6334 51.1779 16.4192 51.178 16.4192 51.178C16.4192 50.8936 16.6183 50.8936 16.8615 51.178C17.4686 51.178 19.9136 50.8937 21.0204 50.6094C24.086 50.0406 26.9866 48.9029 29.9185 47.1967C30.9707 46.6279 33.3595 44.6374 34.315 44.0686C35.0259 43.2155 35.2534 43.2156 34.9633 43.5C34.861 43.7844 34.6647 44.0685 34.5226 44.3529C34.3832 44.6373 34.1387 44.9218 33.9822 45.2062C31.7698 48.6187 30.3508 52.8844 29.9669 57.7188C29.9128 58.5719 29.8673 59.4249 29.8673 59.7092V60.5625H36.499H43.1306L42.9145 60.2782C41.7201 58.5719 40.2385 54.8749 39.7408 52.3156C39.3313 50.3249 39.2091 47.1967 39.465 45.4905C40.2101 40.9405 42.7495 36.9592 47.1118 34.3998C47.5612 34.1154 48.1413 33.8313 48.4001 33.5469L48.875 33.2626V32.4093C48.875 31.8406 48.8408 31.2717 48.7982 31.2717C47.7631 31.8405 45.4596 33.2624 44.4017 33.8312C43.8358 34.3999 43.8017 34.3999 44.3335 33.8312C45.0956 32.9781 46.4094 31.5561 47.8057 29.8499L48.4569 29.2812H47.0322H46.3497Z" fill="#ECF0F1"/>
</svg>
